<svg width="64" height="64" viewBox="0 0 64 64" fill="none" xmlns="http://www.w3.org/2000/svg">
<rect x="20.6144" y="32.5853" width="25.2274" height="20.0743" rx="2" transform="rotate(-9.08587 20.6144 32.5853)" fill="#B8B3D2"/>
<rect x="14.5464" y="24.6754" width="32.8894" height="24.8812" rx="4" transform="rotate(-9.08587 14.5464 24.6754)" fill="#8679C1"/>
<rect x="8.34784" y="17.7863" width="42.1487" height="27.5712" rx="6" transform="rotate(-9.08587 8.34784 17.7863)" fill="#7263AC"/>
<path d="M25.3751 35.4036L24.617 33.3379L21.5811 33.8426L21.5322 36.0425L18.919 36.4769L19.2769 22.5955L23.2543 21.9343L27.9498 34.9756L25.3751 35.4036ZM21.5944 24.7772L21.5893 29.3787L21.5468 31.7356L23.9486 31.3363L23.1265 29.1232L21.6329 24.7708L21.5944 24.7772Z" fill="white"/>
<path d="M29.8952 26.3393L29.5496 25.8044C29.1933 25.3239 28.9651 24.7826 28.865 24.1806C28.6818 23.079 29.0131 22.2604 29.8587 21.7249L32.9522 21.2106L33.3355 23.5164L31.3564 23.8454L31.3372 23.967L36.0542 31.4365L36.4087 33.5693L31.0671 34.4574C30.2901 34.2969 29.6327 33.906 29.095 33.2846C28.5701 32.661 28.2374 31.9265 28.0968 31.081C27.9563 30.2356 28.0345 29.3998 28.3316 28.5738C28.6266 27.7349 29.1478 26.9901 29.8952 26.3393ZM31.1785 28.2387C30.5741 28.9579 30.3379 29.7146 30.4699 30.5088C30.5998 31.2902 30.9497 31.8507 31.5195 32.1904L33.5371 31.855L31.1785 28.2387Z" fill="white"/>
<path d="M40.2432 30.6414L41.9725 30.3539C42.2566 29.8459 42.4298 29.1458 42.4921 28.2535C42.5672 27.359 42.5345 26.4891 42.3939 25.6436C42.0596 23.6325 41.4378 22.2286 40.5287 21.432L38.761 21.7258L40.2432 30.6414ZM38.0006 33.3047L35.7645 19.8545L41.3367 18.9282C43.424 20.2398 44.6977 22.279 45.1577 25.0459C45.6155 27.8 45.1449 30.2346 43.7457 32.3496L38.0006 33.3047Z" fill="white"/>
</svg>
